# Blender 4.3.0
# www.blender.org
mtllib Stairs.mtl
o Cube
v -1.000000 0.203600 1.016000
v -1.000000 0.000400 1.016000
v 1.000000 0.203600 1.016000
v 1.000000 0.000400 1.016000
v -1.000000 0.203600 1.270000
v -1.000000 0.000400 1.270000
v 1.000000 0.203600 1.270000
v 1.000000 0.000400 1.270000
v -1.000000 0.203600 0.762000
v -1.000000 0.000400 0.762000
v 1.000000 0.203600 0.762000
v 1.000000 0.000400 0.762000
v -1.000000 0.203600 0.508000
v -1.000000 0.000400 0.508000
v 1.000000 0.203600 0.508000
v 1.000000 0.000400 0.508000
v -1.000000 0.203600 0.254000
v -1.000000 0.000400 0.254000
v 1.000000 0.203600 0.254000
v 1.000000 0.000400 0.254000
v -1.000000 0.203600 0.000000
v -1.000000 0.000400 0.000000
v 1.000000 0.203600 0.000000
v 1.000000 0.000400 0.000000
v -1.000000 0.203600 -0.254000
v -1.000000 0.000400 -0.254000
v 1.000000 0.203600 -0.254000
v 1.000000 0.000400 -0.254000
v -1.000000 0.203600 -0.508000
v -1.000000 0.000400 -0.508000
v 1.000000 0.203600 -0.508000
v 1.000000 0.000400 -0.508000
v -1.000000 0.203600 -0.762000
v -1.000000 0.000400 -0.762000
v 1.000000 0.203600 -0.762000
v 1.000000 0.000400 -0.762000
v -1.000000 0.203600 -1.016000
v -1.000000 0.000400 -1.016000
v 1.000000 0.203600 -1.016000
v 1.000000 0.000400 -1.016000
v -1.000000 0.203600 -1.270000
v -1.000000 0.000400 -1.270000
v 1.000000 0.203600 -1.270000
v 1.000000 0.000400 -1.270000
v -1.000000 0.406800 1.016000
v 1.000000 0.406800 1.016000
v -1.000000 0.406800 0.762000
v 1.000000 0.406800 0.762000
v -1.000000 0.406800 0.508000
v 1.000000 0.406800 0.508000
v -1.000000 0.406800 0.254000
v 1.000000 0.406800 0.254000
v -1.000000 0.406800 0.000000
v 1.000000 0.406800 0.000000
v -1.000000 0.406800 -0.254000
v 1.000000 0.406800 -0.254000
v -1.000000 0.406800 -0.508000
v 1.000000 0.406800 -0.508000
v -1.000000 0.406800 -0.762000
v 1.000000 0.406800 -0.762000
v -1.000000 0.406800 -1.016000
v 1.000000 0.406800 -1.016000
v -1.000000 0.406800 -1.270000
v 1.000000 0.406800 -1.270000
v -1.000000 0.610000 0.762000
v 1.000000 0.610000 0.762000
v -1.000000 0.610000 0.508000
v 1.000000 0.610000 0.508000
v -1.000000 0.610000 0.254000
v 1.000000 0.610000 0.254000
v -1.000000 0.610000 0.000000
v 1.000000 0.610000 0.000000
v -1.000000 0.610000 -0.254000
v 1.000000 0.610000 -0.254000
v -1.000000 0.610000 -0.508000
v 1.000000 0.610000 -0.508000
v -1.000000 0.610000 -0.762000
v 1.000000 0.610000 -0.762000
v -1.000000 0.610000 -1.016000
v 1.000000 0.610000 -1.016000
v -1.000000 0.610000 -1.270000
v 1.000000 0.610000 -1.270000
v -1.000000 0.813200 0.508000
v 1.000000 0.813200 0.508000
v -1.000000 0.813200 0.254000
v 1.000000 0.813200 0.254000
v -1.000000 0.813200 0.000000
v 1.000000 0.813200 0.000000
v -1.000000 0.813200 -0.254000
v 1.000000 0.813200 -0.254000
v -1.000000 0.813200 -0.508000
v 1.000000 0.813200 -0.508000
v -1.000000 0.813200 -0.762000
v 1.000000 0.813200 -0.762000
v -1.000000 0.813200 -1.016000
v 1.000000 0.813200 -1.016000
v -1.000000 0.813200 -1.270000
v 1.000000 0.813200 -1.270000
v -1.000000 1.016400 0.254000
v 1.000000 1.016400 0.254000
v -1.000000 1.016400 0.000000
v 1.000000 1.016400 0.000000
v -1.000000 1.016400 -0.254000
v 1.000000 1.016400 -0.254000
v -1.000000 1.016400 -0.508000
v 1.000000 1.016400 -0.508000
v -1.000000 1.016400 -0.762000
v 1.000000 1.016400 -0.762000
v -1.000000 1.016400 -1.016000
v 1.000000 1.016400 -1.016000
v -1.000000 1.016400 -1.270000
v 1.000000 1.016400 -1.270000
v -1.000000 1.219600 0.000000
v 1.000000 1.219600 0.000000
v -1.000000 1.219600 -0.254000
v 1.000000 1.219600 -0.254000
v -1.000000 1.219600 -0.508000
v 1.000000 1.219600 -0.508000
v -1.000000 1.219600 -0.762000
v 1.000000 1.219600 -0.762000
v -1.000000 1.219600 -1.016000
v 1.000000 1.219600 -1.016000
v -1.000000 1.219600 -1.270000
v 1.000000 1.219600 -1.270000
v -1.000000 1.422800 -0.254000
v 1.000000 1.422800 -0.254000
v -1.000000 1.422800 -0.508000
v 1.000000 1.422800 -0.508000
v -1.000000 1.422800 -0.762000
v 1.000000 1.422800 -0.762000
v -1.000000 1.422800 -1.016000
v 1.000000 1.422800 -1.016000
v -1.000000 1.422800 -1.270000
v 1.000000 1.422800 -1.270000
v -1.000000 1.626000 -0.508000
v 1.000000 1.626000 -0.508000
v -1.000000 1.626000 -0.762000
v 1.000000 1.626000 -0.762000
v -1.000000 1.626000 -1.016000
v 1.000000 1.626000 -1.016000
v -1.000000 1.626000 -1.270000
v 1.000000 1.626000 -1.270000
v -1.000000 1.829200 -0.762000
v 1.000000 1.829200 -0.762000
v -1.000000 1.829200 -1.016000
v 1.000000 1.829200 -1.016000
v -1.000000 1.829200 -1.270000
v 1.000000 1.829200 -1.270000
v -1.000000 2.032400 -1.016000
v 1.000000 2.032400 -1.016000
v -1.000000 2.032400 -1.270000
v 1.000000 2.032400 -1.270000
vn -0.0000 1.0000 -0.0000
vn 1.0000 -0.0000 -0.0000
vn -0.0000 -0.0000 1.0000
vn -0.0000 -1.0000 -0.0000
vn -1.0000 -0.0000 -0.0000
vn -0.0000 -0.0000 -1.0000
vt 0.625000 0.500000
vt 0.875000 0.500000
vt 0.875000 0.750000
vt 0.625000 0.750000
vt 0.375000 0.750000
vt 0.625000 1.000000
vt 0.375000 1.000000
vt 0.375000 0.000000
vt 0.625000 0.000000
vt 0.625000 0.250000
vt 0.375000 0.250000
vt 0.125000 0.500000
vt 0.375000 0.500000
vt 0.125000 0.750000
s 0
usemtl Material
f 1/1/1 5/2/1 7/3/1 3/4/1
f 4/5/2 3/4/2 7/6/2 8/7/2
f 8/8/3 7/9/3 5/10/3 6/11/3
f 6/12/4 2/13/4 4/5/4 8/14/4
f 3/4/2 4/5/2 12/5/2 11/4/2
f 6/11/5 5/10/5 1/1/5 2/13/5
f 31/4/2 35/4/2 60/4/2 58/4/2
f 2/13/5 1/1/5 9/1/5 10/13/5
f 4/5/4 2/13/4 10/13/4 12/5/4
f 25/1/5 21/1/5 53/1/5 55/1/5
f 16/5/4 14/13/4 18/13/4 20/5/4
f 10/13/5 9/1/5 13/1/5 14/13/5
f 12/5/4 10/13/4 14/13/4 16/5/4
f 11/4/2 12/5/2 16/5/2 15/4/2
f 15/4/2 19/4/2 52/4/2 50/4/2
f 15/4/2 16/5/2 20/5/2 19/4/2
f 21/1/5 17/1/5 51/1/5 53/1/5
f 14/13/5 13/1/5 17/1/5 18/13/5
f 43/4/6 41/1/6 63/1/6 64/4/6
f 18/13/5 17/1/5 21/1/5 22/13/5
f 20/5/4 18/13/4 22/13/4 24/5/4
f 19/4/2 20/5/2 24/5/2 23/4/2
f 28/5/4 26/13/4 30/13/4 32/5/4
f 22/13/5 21/1/5 25/1/5 26/13/5
f 24/5/4 22/13/4 26/13/4 28/5/4
f 23/4/2 24/5/2 28/5/2 27/4/2
f 23/4/2 27/4/2 56/4/2 54/4/2
f 27/4/2 28/5/2 32/5/2 31/4/2
f 9/1/5 1/1/5 45/1/5 47/1/5
f 26/13/5 25/1/5 29/1/5 30/13/5
f 34/13/5 33/1/5 37/1/5 38/13/5
f 30/13/5 29/1/5 33/1/5 34/13/5
f 32/5/4 30/13/4 34/13/4 36/5/4
f 31/4/2 32/5/2 36/5/2 35/4/2
f 40/5/4 38/13/4 42/13/4 44/5/4
f 36/5/4 34/13/4 38/13/4 40/5/4
f 35/4/2 36/5/2 40/5/2 39/4/2
f 19/4/2 23/4/2 54/4/2 52/4/2
f 42/13/6 41/1/6 43/4/6 44/5/6
f 39/4/2 40/5/2 44/5/2 43/4/2
f 13/1/5 9/1/5 47/1/5 49/1/5
f 38/13/5 37/1/5 41/1/5 42/13/5
f 64/4/6 63/1/6 81/1/6 82/4/6
f 45/1/1 46/4/1 48/4/1 47/1/1
f 56/4/2 58/4/2 76/4/2 74/4/2
f 60/4/2 62/4/2 80/4/2 78/4/2
f 51/1/5 49/1/5 67/1/5 69/1/5
f 47/1/3 48/4/3 66/4/3 65/1/3
f 61/1/5 59/1/5 77/1/5 79/1/5
f 50/4/2 52/4/2 70/4/2 68/4/2
f 55/1/5 53/1/5 71/1/5 73/1/5
f 37/1/5 33/1/5 59/1/5 61/1/5
f 17/1/5 13/1/5 49/1/5 51/1/5
f 33/1/5 29/1/5 57/1/5 59/1/5
f 27/4/2 31/4/2 58/4/2 56/4/2
f 1/1/3 3/4/3 46/4/3 45/1/3
f 29/1/5 25/1/5 55/1/5 57/1/5
f 39/4/2 43/4/2 64/4/2 62/4/2
f 35/4/2 39/4/2 62/4/2 60/4/2
f 41/1/5 37/1/5 61/1/5 63/1/5
f 11/4/2 15/4/2 50/4/2 48/4/2
f 3/4/2 11/4/2 48/4/2 46/4/2
f 65/1/1 66/4/1 68/4/1 67/1/1
f 82/4/6 81/1/6 97/1/6 98/4/6
f 74/4/2 76/4/2 92/4/2 90/4/2
f 78/4/2 80/4/2 96/4/2 94/4/2
f 69/1/5 67/1/5 83/1/5 85/1/5
f 79/1/5 77/1/5 93/1/5 95/1/5
f 68/4/2 70/4/2 86/4/2 84/4/2
f 73/1/5 71/1/5 87/1/5 89/1/5
f 57/1/5 55/1/5 73/1/5 75/1/5
f 52/4/2 54/4/2 72/4/2 70/4/2
f 62/4/2 64/4/2 82/4/2 80/4/2
f 53/1/5 51/1/5 69/1/5 71/1/5
f 63/1/5 61/1/5 79/1/5 81/1/5
f 48/4/2 50/4/2 68/4/2 66/4/2
f 58/4/2 60/4/2 78/4/2 76/4/2
f 49/1/5 47/1/5 65/1/5 67/1/5
f 59/1/5 57/1/5 75/1/5 77/1/5
f 54/4/2 56/4/2 74/4/2 72/4/2
f 88/4/2 90/4/2 104/4/2 102/4/2
f 83/1/1 84/4/1 86/4/1 85/1/1
f 93/1/5 91/1/5 105/1/5 107/1/5
f 92/4/2 94/4/2 108/4/2 106/4/2
f 97/1/5 95/1/5 109/1/5 111/1/5
f 87/1/5 85/1/5 99/1/5 101/1/5
f 96/4/2 98/4/2 112/4/2 110/4/2
f 75/1/5 73/1/5 89/1/5 91/1/5
f 70/4/2 72/4/2 88/4/2 86/4/2
f 80/4/2 82/4/2 98/4/2 96/4/2
f 67/1/3 68/4/3 84/4/3 83/1/3
f 71/1/5 69/1/5 85/1/5 87/1/5
f 81/1/5 79/1/5 95/1/5 97/1/5
f 76/4/2 78/4/2 94/4/2 92/4/2
f 77/1/5 75/1/5 91/1/5 93/1/5
f 72/4/2 74/4/2 90/4/2 88/4/2
f 99/1/1 100/4/1 102/4/1 101/1/1
f 104/4/2 106/4/2 118/4/2 116/4/2
f 101/1/3 102/4/3 114/4/3 113/1/3
f 111/1/5 109/1/5 121/1/5 123/1/5
f 106/4/2 108/4/2 120/4/2 118/4/2
f 109/1/5 107/1/5 119/1/5 121/1/5
f 85/1/3 86/4/3 100/4/3 99/1/3
f 89/1/5 87/1/5 101/1/5 103/1/5
f 95/1/5 93/1/5 107/1/5 109/1/5
f 94/4/2 96/4/2 110/4/2 108/4/2
f 90/4/2 92/4/2 106/4/2 104/4/2
f 98/4/6 97/1/6 111/1/6 112/4/6
f 91/1/5 89/1/5 103/1/5 105/1/5
f 86/4/2 88/4/2 102/4/2 100/4/2
f 113/1/1 114/4/1 116/4/1 115/1/1
f 115/1/3 116/4/3 126/4/3 125/1/3
f 121/1/5 119/1/5 129/1/5 131/1/5
f 122/4/2 124/4/2 134/4/2 132/4/2
f 124/4/6 123/1/6 133/1/6 134/4/6
f 108/4/2 110/4/2 122/4/2 120/4/2
f 102/4/2 104/4/2 116/4/2 114/4/2
f 107/1/5 105/1/5 117/1/5 119/1/5
f 105/1/5 103/1/5 115/1/5 117/1/5
f 112/4/6 111/1/6 123/1/6 124/4/6
f 103/1/5 101/1/5 113/1/5 115/1/5
f 110/4/2 112/4/2 124/4/2 122/4/2
f 134/4/6 133/1/6 141/1/6 142/4/6
f 125/1/1 126/4/1 128/4/1 127/1/1
f 127/1/3 128/4/3 136/4/3 135/1/3
f 133/1/5 131/1/5 139/1/5 141/1/5
f 118/4/2 120/4/2 130/4/2 128/4/2
f 123/1/5 121/1/5 131/1/5 133/1/5
f 116/4/2 118/4/2 128/4/2 126/4/2
f 120/4/2 122/4/2 132/4/2 130/4/2
f 119/1/5 117/1/5 127/1/5 129/1/5
f 117/1/5 115/1/5 125/1/5 127/1/5
f 135/1/1 136/4/1 138/4/1 137/1/1
f 137/1/3 138/4/3 144/4/3 143/1/3
f 139/1/5 137/1/5 143/1/5 145/1/5
f 131/1/5 129/1/5 137/1/5 139/1/5
f 129/1/5 127/1/5 135/1/5 137/1/5
f 132/4/2 134/4/2 142/4/2 140/4/2
f 130/4/2 132/4/2 140/4/2 138/4/2
f 128/4/2 130/4/2 138/4/2 136/4/2
f 143/1/1 144/4/1 146/4/1 145/1/1
f 146/4/2 148/4/2 152/4/2 150/4/2
f 140/4/2 142/4/2 148/4/2 146/4/2
f 138/4/2 140/4/2 146/4/2 144/4/2
f 141/1/5 139/1/5 145/1/5 147/1/5
f 142/4/6 141/1/6 147/1/6 148/4/6
f 149/1/1 150/4/1 152/4/1 151/1/1
f 145/1/3 146/4/3 150/4/3 149/1/3
f 147/1/5 145/1/5 149/1/5 151/1/5
f 148/4/6 147/1/6 151/1/6 152/4/6
